<svg xmlns="http://www.w3.org/2000/svg" version="1.1" xmlns:xlink="http://www.w3.org/1999/xlink" xmlns:svgjs="http://svgjs.com/svgjs" height="157.13002014160156" width="259.3900146484375"><defs id="SvgjsDefs1768"></defs><g id="SvgjsG1769" rel="mainfill" name="main_text" xmlns:name="main_text" transform="translate(-13.984989166259766,-151.0399932861328)" fill="#0D0D0D"><path d="M122.48 161.38Q122.48 164.22 116.69 169.70Q110.90 175.18 102.52 180.11Q101.41 183.56 99.32 192.56Q95.99 206.73 93.16 212.64Q90.32 218.56 83.79 224.72Q65.06 242.46 41.77 242.46Q35.12 242.46 29.94 240.25Q27.11 245.79 27.11 249.86Q27.11 255.03 30.56 259.35Q30.93 259.72 30.93 260.21Q30.93 260.70 30.31 260.70Q28.96 260.70 27.36 256.94Q25.75 253.18 25.75 249.98Q25.75 245.30 28.83 239.63Q16.27 233.10 16.27 217.33Q16.27 207.10 22.30 197.06Q28.34 187.01 39.18 179.00Q53.11 168.78 66.66 168.78Q74.06 168.78 78.43 172.91Q82.81 177.03 82.81 184.18Q82.81 188 81.70 192.07Q90.57 186.15 97.35 182.09Q101.66 172.60 108.25 165.82Q114.84 159.04 119.65 159.04Q122.48 159.04 122.48 161.38M121.37 161.51Q121.37 160.03 119.65 160.03Q115.71 160.03 110.72 165.57Q105.73 171.12 103.01 178.64Q110.90 173.71 116.14 168.84Q121.37 163.97 121.37 161.51M79.60 194.78L75.66 197.49Q52.99 213.14 42.88 223.49Q45.47 224.84 48.30 224.84Q56.68 224.84 65.92 215.97Q75.17 207.10 79.60 194.78M96.61 183.69Q89.58 188.12 81.20 193.79Q77.26 206.48 67.28 216.16Q57.30 225.83 48.18 225.83Q45.47 225.83 42.14 224.35Q35.36 231.37 30.56 239.14Q35.49 241.36 41.77 241.36Q52.99 241.36 63.58 234.95Q74.18 228.54 81.82 217.20Q85.39 211.91 87.43 207.35Q89.46 202.79 94.02 190.22Q95.13 187.14 96.61 183.69M81.70 183.93Q81.70 177.65 77.69 173.77Q73.69 169.89 67.16 169.89Q51.01 169.89 35.86 186.77Q20.70 203.65 20.70 221.64Q20.70 233.47 29.45 238.52Q33.52 231.74 41.16 223.73Q37.21 220.41 37.21 215.60Q37.21 212.03 39.49 209.44Q41.77 206.85 44.98 206.85Q49.04 206.85 49.04 210.55Q49.04 212.52 47.56 213.94Q46.09 215.36 43.99 215.36Q41.03 215.36 41.03 212.52Q41.03 211.54 41.65 210.55Q41.90 209.81 41.90 209.69Q41.90 209.32 41.53 209.32Q40.54 209.32 39.43 211.47Q38.32 213.63 38.32 215.73Q38.32 219.67 42.02 222.87Q54.09 210.06 80.22 193.05Q81.70 187.75 81.70 183.93ZM136.90 221.15Q136.90 222.50 128.15 232.85Q120.88 241.36 116.69 241.36Q114.10 241.36 112.26 239.26Q110.41 237.17 110.41 234.09Q110.41 231.74 112.75 227.55L111.52 229.16Q105.97 236.30 103.51 238.64Q100.55 241.36 98.09 241.36Q95.37 241.36 93.59 239.32Q91.80 237.29 91.80 234.21Q91.80 230.76 94.51 226.20L105.48 207.84Q107.57 208.21 108.68 208.21Q109.79 208.21 112.75 207.84L98.45 231.37Q96.24 235.07 96.24 237.78Q96.24 240.49 98.58 240.49Q104.62 240.49 118.05 217.82L123.96 207.84Q125.81 208.21 127.04 208.21Q128.64 208.21 131.36 207.84L121.74 223.49Q114.84 234.70 114.84 237.91Q114.84 240.49 117.31 240.49Q122.11 240.49 132.96 225.34L134.81 222.75L135.91 221.39Q136.16 220.78 136.53 220.78Q136.90 220.78 136.90 221.15ZM185.08 221.15Q185.08 222.38 176.33 232.85Q169.18 241.36 165.12 241.36Q162.41 241.36 160.56 239.26Q158.71 237.17 158.71 234.09Q158.71 231.37 159.82 229.09Q160.93 226.82 165.73 219.73Q170.54 212.64 170.54 210.67Q170.54 208.21 167.95 208.21Q159.20 208.21 140.84 240.86Q137.89 240.62 137.27 240.62Q135.18 240.62 133.33 240.86L142.69 225.95Q150.70 213.26 150.70 210.06Q150.70 208.21 149.22 208.21Q146.14 208.21 137.15 221.15Q136.53 221.89 136.28 222.01Q135.91 222.01 135.91 221.64Q135.91 221.39 136.16 221.15L137.27 219.67Q146.51 207.35 149.72 207.35Q151.69 207.35 153.17 209.19Q154.64 211.04 154.64 213.63Q154.64 217.45 150.09 224.35Q157.23 214.62 161.05 210.98Q164.87 207.35 168.08 207.35Q170.79 207.35 172.57 209.50Q174.36 211.66 174.36 214.86Q174.36 218.81 168.75 227.25Q163.15 235.69 163.15 238.03Q163.15 240.49 165.61 240.49Q171.03 240.49 184.09 221.39Q184.34 220.78 184.71 220.78Q185.08 220.78 185.08 221.15ZM233.26 221.15Q233.26 222.38 224.51 232.85Q217.36 241.36 213.30 241.36Q210.59 241.36 208.74 239.26Q206.89 237.17 206.89 234.09Q206.89 231.37 208.00 229.09Q209.11 226.82 213.91 219.73Q218.72 212.64 218.72 210.67Q218.72 208.21 216.13 208.21Q207.38 208.21 189.02 240.86Q186.07 240.62 185.45 240.62Q183.36 240.62 181.51 240.86L190.87 225.95Q198.88 213.26 198.88 210.06Q198.88 208.21 197.40 208.21Q194.32 208.21 185.33 221.15Q184.71 221.89 184.46 222.01Q184.09 222.01 184.09 221.64Q184.09 221.39 184.34 221.15L185.45 219.67Q194.69 207.35 197.90 207.35Q199.87 207.35 201.35 209.19Q202.82 211.04 202.82 213.63Q202.82 217.45 198.27 224.35Q205.41 214.62 209.23 210.98Q213.05 207.35 216.26 207.35Q218.97 207.35 220.75 209.50Q222.54 211.66 222.54 214.86Q222.54 218.81 216.93 227.25Q211.33 235.69 211.33 238.03Q211.33 240.49 213.79 240.49Q219.21 240.49 232.27 221.39Q232.52 220.78 232.89 220.78Q233.26 220.78 233.26 221.15ZM271.09 221.15Q271.09 222.13 264.44 229.40Q257.17 237.41 245.34 243.94L242.38 249.24Q233.63 264.89 224.14 272.53Q214.28 280.42 207.14 280.42Q204.67 280.42 203.01 278.88Q201.35 277.34 201.35 275.00Q201.35 262.92 229.19 249.98Q231.54 248.87 236.09 246.78L236.96 246.28L247.55 227.43Q241.27 236.06 238.44 238.71Q235.60 241.36 232.77 241.36Q230.30 241.36 228.45 239.26Q226.61 237.17 226.61 234.33Q226.61 230.88 230.92 223.61L240.16 207.96Q241.52 208.21 243.36 208.21Q244.97 208.21 247.68 207.84L235.85 227.06Q230.80 235.32 230.80 237.78Q230.80 240.49 233.26 240.49Q239.79 240.49 253.22 217.45L258.77 207.96Q260.12 208.21 262.09 208.21Q263.82 208.21 266.16 207.84Q258.64 219.67 245.95 242.59Q253.22 238.77 258.27 234.33Q263.33 229.90 269.61 221.89Q270.47 220.78 270.72 220.78Q271.09 220.78 271.09 221.15M236.34 247.27Q235.36 247.76 229.56 250.72Q202.21 264.27 202.21 275.12Q202.21 279.68 207.26 279.68Q213.67 279.68 219.95 272.72Q226.24 265.75 235.60 248.50Q235.60 248.50 236.34 247.27Z" fill="#0D0D0D" style="fill: rgb(13, 13, 13);"></path></g><g id="SvgjsG1770" rel="mainfill" name="slogan_text" xmlns:name="slogan_text" transform="translate(-1.4600000381469727,-87.58998107910156)" fill="#0D0D0D"><path d="M8.76 238.78L12.57 233.13L13.14 231.87L13.14 240L15.92 240L15.70 238.31L15.70 226.86L13.99 226.86L8.97 234.67L3.48 226.86L1.46 226.86L1.73 228.88L1.73 240L4.21 240L3.99 238.31L3.99 231.85L4.64 233.13ZM28.00 234.81C28.00 231.32 26.05 229.77 23.48 229.77C20.13 229.77 18.26 232.23 18.26 235.16C18.26 237.64 19.82 240.26 22.81 240.26C26.09 240.26 28.00 237.74 28.00 234.81ZM20.86 235.00C20.86 233.03 21.70 231.52 23.12 231.52C24.54 231.52 25.38 233.03 25.38 235.00C25.38 236.97 24.54 238.50 23.12 238.50C21.70 238.50 20.86 236.97 20.86 235.00ZM37.01 230.50C36.54 230.00 35.99 229.77 35.38 229.77C33.67 229.77 32.70 231.60 32.70 231.60L32.70 229.81L29.99 230.10L30.26 232.09L30.26 240L32.92 240L32.70 238.31L32.70 234.92C32.70 233.39 33.92 232.13 34.95 232.13C35.70 232.13 36.27 232.66 36.27 232.66ZM42.41 229.77C39.12 229.77 37.72 232.40 37.72 235.28C37.72 237.82 39.28 240.26 42.21 240.26C44.77 240.26 46.34 238.86 46.34 238.86L45.99 236.85C45.99 236.85 44.39 238.25 42.68 238.25C41.13 238.25 40.32 236.99 40.22 235.40L45.67 235.40L46.14 234.92C46.10 233.45 45.85 229.77 42.41 229.77ZM42.17 231.44C43.21 231.44 43.55 232.72 43.61 233.66L40.32 233.66C40.54 232.42 41.09 231.44 42.17 231.44ZM53.35 244.72L56.00 244.72L55.79 243.03L55.79 240.18C56.18 240.22 56.59 240.26 56.93 240.26C60.00 240.26 62.12 237.74 62.12 234.81C62.12 231.54 60.29 229.77 58.19 229.77C57.40 229.77 56.57 230.14 55.79 230.87L55.79 229.77L53.07 230.06L53.35 232.05ZM57.56 231.79C58.62 231.79 59.51 232.84 59.51 234.98C59.51 236.95 58.48 238.48 57.24 238.48C56.47 238.48 55.79 238.41 55.79 238.41L55.79 232.62C55.79 232.62 56.46 231.79 57.56 231.79ZM73.26 234.81C73.26 231.32 71.31 229.77 68.73 229.77C65.39 229.77 63.52 232.23 63.52 235.16C63.52 237.64 65.07 240.26 68.06 240.26C71.35 240.26 73.26 237.74 73.26 234.81ZM66.12 235.00C66.12 233.03 66.96 231.52 68.38 231.52C69.80 231.52 70.64 233.03 70.64 235.00C70.64 236.97 69.80 238.50 68.38 238.50C66.96 238.50 66.12 236.97 66.12 235.00ZM90.52 229.79L87.96 230.16L85.79 236.14L85.46 237.44L85.24 236.14L83.24 229.79L80.74 230.14L81.13 231.09L79.20 236.14L78.85 237.44L78.63 236.14L76.62 229.79L73.93 230.14L74.89 231.97L77.61 239.88L79.62 240.26L81.96 234.69L82.17 233.68L82.43 234.67L84.22 239.88L86.23 240.26ZM95.91 229.77C92.62 229.77 91.23 232.40 91.23 235.28C91.23 237.82 92.78 240.26 95.71 240.26C98.27 240.26 99.84 238.86 99.84 238.86L99.49 236.85C99.49 236.85 97.90 238.25 96.18 238.25C94.63 238.25 93.82 236.99 93.72 235.40L99.18 235.40L99.65 234.92C99.61 233.45 99.35 229.77 95.91 229.77ZM95.67 231.44C96.72 231.44 97.05 232.72 97.11 233.66L93.82 233.66C94.04 232.42 94.59 231.44 95.67 231.44ZM108.68 230.50C108.21 230.00 107.66 229.77 107.05 229.77C105.33 229.77 104.37 231.60 104.37 231.60L104.37 229.81L101.65 230.10L101.93 232.09L101.93 240L104.59 240L104.37 238.31L104.37 234.92C104.37 233.39 105.59 232.13 106.61 232.13C107.36 232.13 107.93 232.66 107.93 232.66ZM110.47 242.62C112.28 241.36 112.99 239.82 112.99 238.88C112.99 237.86 112.32 237.36 111.59 237.36C110.80 237.36 110.27 238.13 110.27 238.70L110.27 238.84C110.65 239.02 110.84 239.19 110.84 239.74C110.84 240.31 110.41 241.00 109.68 241.65ZM135.54 240L135.32 238.35L135.32 232.29C135.32 230.57 133.85 229.77 132.35 229.77C130.15 229.77 128.99 231.09 128.95 231.15C128.44 230.26 127.35 229.77 126.27 229.77C125.19 229.77 124.01 230.22 123.14 231.01L123.14 229.79L120.43 230.08L120.70 232.07L120.70 240L123.36 240L123.14 238.31L123.14 232.96C123.14 232.96 124.11 231.81 125.60 231.81C126.61 231.81 126.80 232.40 126.80 234.25L126.80 240L129.46 240L129.24 238.35L129.24 232.94C129.24 232.94 130.23 231.81 131.68 231.81C132.69 231.81 132.88 232.40 132.88 234.25L132.88 240ZM147.27 234.81C147.27 231.32 145.32 229.77 142.74 229.77C139.40 229.77 137.53 232.23 137.53 235.16C137.53 237.64 139.08 240.26 142.07 240.26C145.36 240.26 147.27 237.74 147.27 234.81ZM140.12 235.00C140.12 233.03 140.97 231.52 142.39 231.52C143.80 231.52 144.65 233.03 144.65 235.00C144.65 236.97 143.80 238.50 142.39 238.50C140.97 238.50 140.12 236.97 140.12 235.00ZM156.28 230.50C155.81 230.00 155.26 229.77 154.65 229.77C152.93 229.77 151.97 231.60 151.97 231.60L151.97 229.81L149.25 230.10L149.53 232.09L149.53 240L152.19 240L151.97 238.31L151.97 234.92C151.97 233.39 153.19 232.13 154.21 232.13C154.96 232.13 155.53 232.66 155.53 232.66ZM161.67 229.77C158.38 229.77 156.99 232.40 156.99 235.28C156.99 237.82 158.54 240.26 161.47 240.26C164.03 240.26 165.61 238.86 165.61 238.86L165.25 236.85C165.25 236.85 163.66 238.25 161.95 238.25C160.39 238.25 159.59 236.99 159.49 235.40L164.94 235.40L165.41 234.92C165.37 233.45 165.11 229.77 161.67 229.77ZM161.43 231.44C162.48 231.44 162.81 232.72 162.87 233.66L159.59 233.66C159.80 232.42 160.35 231.44 161.43 231.44ZM172.61 244.72L175.27 244.72L175.05 243.03L175.05 240.18C175.45 240.22 175.86 240.26 176.19 240.26C179.26 240.26 181.39 237.74 181.39 234.81C181.39 231.54 179.56 229.77 177.45 229.77C176.67 229.77 175.84 230.14 175.05 230.87L175.05 229.77L172.34 230.06L172.61 232.05ZM176.82 231.79C177.89 231.79 178.77 232.84 178.77 234.98C178.77 236.95 177.75 238.48 176.51 238.48C175.74 238.48 175.05 238.41 175.05 238.41L175.05 232.62C175.05 232.62 175.72 231.79 176.82 231.79ZM187.51 229.77C184.22 229.77 182.82 232.40 182.82 235.28C182.82 237.82 184.38 240.26 187.31 240.26C189.87 240.26 191.44 238.86 191.44 238.86L191.09 236.85C191.09 236.85 189.50 238.25 187.78 238.25C186.23 238.25 185.42 236.99 185.32 235.40L190.77 235.40L191.25 234.92C191.21 233.45 190.95 229.77 187.51 229.77ZM187.27 231.44C188.31 231.44 188.65 232.72 188.71 233.66L185.42 233.66C185.64 232.42 186.19 231.44 187.27 231.44ZM200.28 230.50C199.81 230.00 199.26 229.77 198.65 229.77C196.93 229.77 195.97 231.60 195.97 231.60L195.97 229.81L193.25 230.10L193.53 232.09L193.53 240L196.19 240L195.97 238.31L195.97 234.92C195.97 233.39 197.19 232.13 198.21 232.13C198.96 232.13 199.53 232.66 199.53 232.66ZM200.77 231.89L201.97 231.89L201.97 240L204.63 240L204.41 237.76L204.41 231.89L206.24 231.89L206.89 230.06L204.41 230.06L204.41 228.53C204.41 227.47 204.84 227.07 205.41 227.07C205.73 227.07 206.28 227.13 206.99 227.70L207.82 225.71C206.97 225.22 206.08 224.97 205.22 224.97C203.49 224.97 201.97 226.03 201.97 228.88L201.97 230.06L200.77 230.06ZM212.32 229.77C209.04 229.77 207.64 232.40 207.64 235.28C207.64 237.82 209.19 240.26 212.12 240.26C214.68 240.26 216.26 238.86 216.26 238.86L215.90 236.85C215.90 236.85 214.31 238.25 212.60 238.25C211.04 238.25 210.24 236.99 210.14 235.40L215.59 235.40L216.06 234.92C216.02 233.45 215.76 229.77 212.32 229.77ZM212.09 231.44C213.13 231.44 213.46 232.72 213.52 233.66L210.24 233.66C210.45 232.42 211.00 231.44 212.09 231.44ZM225.94 231.09C225.94 231.09 224.76 229.77 222.34 229.77C219.17 229.77 217.46 232.33 217.46 235.20C217.46 237.74 218.91 240.26 221.85 240.26C224.42 240.26 225.90 238.72 225.90 238.72L225.54 236.67C225.54 236.67 224.03 238.25 222.32 238.25C220.70 238.25 219.96 236.67 219.96 235.02C219.96 233.25 220.70 231.64 222.40 231.64C223.12 231.64 224.09 231.95 224.82 232.86ZM230.70 228.02L228.06 228.31L228.06 230.06L226.86 230.06L226.86 231.89L228.06 231.89L228.06 237.07C228.06 239.37 228.91 240.26 230.58 240.26C232.73 240.26 233.83 239.25 233.83 239.25L233.57 237.11C233.12 237.50 232.04 238.03 231.31 238.03C230.84 238.03 230.48 237.84 230.48 237.13L230.48 231.89L232.81 231.89L233.44 230.06L230.50 230.06ZM237.82 229.77L235.11 230.06L235.38 232.05L235.38 240L238.04 240L237.82 238.31ZM235.19 227.15C235.19 227.88 235.82 228.47 236.56 228.47C237.27 228.47 237.88 227.88 237.88 227.15C237.88 226.38 237.27 225.77 236.56 225.77C235.82 225.77 235.19 226.38 235.19 227.15ZM249.83 234.81C249.83 231.32 247.88 229.77 245.30 229.77C241.96 229.77 240.09 232.23 240.09 235.16C240.09 237.64 241.64 240.26 244.63 240.26C247.92 240.26 249.83 237.74 249.83 234.81ZM242.68 235.00C242.68 233.03 243.53 231.52 244.95 231.52C246.36 231.52 247.21 233.03 247.21 235.00C247.21 236.97 246.36 238.50 244.95 238.50C243.53 238.50 242.68 236.97 242.68 235.00ZM260.85 240L260.63 238.35L260.63 232.29C260.63 230.57 259.15 229.77 257.66 229.77C256.58 229.77 255.40 230.20 254.53 230.99L254.53 229.79L251.81 230.08L252.09 232.07L252.09 240L254.75 240L254.53 238.31L254.53 232.94C254.53 232.94 255.49 231.81 256.99 231.81C257.99 231.81 258.19 232.40 258.19 234.25L258.19 240Z" fill="#0D0D0D" style="fill: rgb(13, 13, 13);"></path></g></svg>