<?xml version="1.0"?>
<svg xmlns="http://www.w3.org/2000/svg" xmlns:xlink="http://www.w3.org/1999/xlink" version="1.1" id="Capa_1" x="0px" y="0px" viewBox="0 0 512 512" style="enable-background:new 0 0 512 512;" xml:space="preserve" width="512px" height="512px" class=""><g><g>
	<g>
		<g>
			<path d="M508.875,248.458L448,187.583V74.667C448,68.771,443.229,64,437.333,64H324.417L263.542,3.125     c-4.167-4.167-10.917-4.167-15.083,0L187.583,64H74.667C68.771,64,64,68.771,64,74.667v112.917L3.125,248.458     c-4.167,4.167-4.167,10.917,0,15.083L64,324.417v112.917C64,443.229,68.771,448,74.667,448h112.917l60.875,60.875     c2.083,2.083,4.813,3.125,7.542,3.125s5.458-1.042,7.542-3.125L324.417,448h112.917c5.896,0,10.667-4.771,10.667-10.667V324.417     l60.875-60.875C513.042,259.375,513.042,252.625,508.875,248.458z M256,427.292c-94.448,0-171.292-76.844-171.292-171.292     S161.552,84.708,256,84.708S427.292,161.552,427.292,256S350.448,427.292,256,427.292z" data-original="#000000" class="active-path" data-old_color="#000000" fill="#CD1616"/>
			<circle cx="256" cy="256" r="149.973" data-original="#000000" class="active-path" data-old_color="#000000" fill="#CD1616"/>
		</g>
	</g>
</g></g> </svg>
